<svg width="27" height="37" viewBox="0 0 27 37" fill="none" xmlns="http://www.w3.org/2000/svg">
<path d="M11.7679 11.2314C12.5378 9.89811 14.4622 9.89811 15.2321 11.2314L21.7272 22.4814C22.497 23.8148 21.5348 25.4814 19.9952 25.4814H7.00481C5.46521 25.4814 4.50296 23.8148 5.27276 22.4814L11.7679 11.2314Z" stroke="#FF0000" stroke-width="2"/>
<path d="M14.6078 14.5042L14.4416 20.615H12.882L12.7115 14.5042H14.6078ZM13.6618 23.3422C13.3805 23.3422 13.1391 23.2428 12.9374 23.0439C12.7357 22.8422 12.6362 22.6008 12.6391 22.3195C12.6362 22.0411 12.7357 21.8025 12.9374 21.6036C13.1391 21.4047 13.3805 21.3053 13.6618 21.3053C13.9317 21.3053 14.1689 21.4047 14.3734 21.6036C14.578 21.8025 14.6817 22.0411 14.6845 22.3195C14.6817 22.507 14.632 22.6789 14.5354 22.8351C14.4416 22.9885 14.318 23.1121 14.1646 23.2059C14.0112 23.2968 13.8436 23.3422 13.6618 23.3422Z" fill="#FF0000"/>
</svg>
